# xmcd
# 
# Track frame offsets:
#     150
#     69710
#     145307
#     177745
#     204887
#     240905
#     261527
#     285147
# 
# Disc length: 4539
# 
# Revision: 8
# Processed by: cddbd v1.5.2PL0 Copyright (c) Steve Scherf et al.
# Submitted via: fre:ac v1.0.17
# 
DISCID=7511b908
DTITLE=Jacqueline du Pre - A Lasting Inspiration - Disc 1
DYEAR=1996
DGENRE=Classical
TTITLE0=Dvorak - Cello Concerto in B Minor Op. 104 - 1. Allegro
TTITLE1=Haydn - Cello Concerto No. 2 in D major Op. 101. I. Allegro moderato
TTITLE2=Haydn - Cello Concerto No. 2 in D major Op.101. II. Adagio
TTITLE3=Haydn - Cello Concerto No. 2 in D majorOp. 101. III. Allegro
TTITLE4=Elgar - Cello Concerto in E Minor Op. 85. I. Adagio- moderato
TTITLE5=Elgar - Cello Concerto in E Minor Op. 85. II. Lento-Allegro molto
TTITLE6=Elgar - Cello Concerto in E Minor Op. 85. III. Adagio
TTITLE7=Elgar - Cello Concerto in E Minor Op. 85. IV. Allegro-Moderato-Allegro,  ma non troppo
EXTD=EMI Stereo ID3G:  32 YEAR: 1996
EXTT0=Chicago Symhony Orchestra/Barenboim
EXTT1=London Symphony Orchestra - Barbirolli
EXTT2=
EXTT3=
EXTT4=London Symphony Orchestra - Barbirolli
EXTT5=
EXTT6=
EXTT7=
PLAYORDER=
